<?xml version="1.0" standalone="no"?>
<!DOCTYPE svg PUBLIC "-//W3C//DTD SVG 20010904//EN"
 "http://www.w3.org/TR/2001/REC-SVG-20010904/DTD/svg10.dtd">
<svg version="1.0" xmlns="http://www.w3.org/2000/svg"
 width="256" height="256" viewBox="0 0 512 512">

<g transform="translate(-256.00000,768.000000) scale(0.100000,-0.100000)"
fill="#000000" stroke="none">
<path d="M5029 7417 c-145 -41 -236 -153 -254 -313 l-7 -59 -97 -30 c-422
-130 -792 -487 -933 -898 -69 -206 -84 -316 -108 -807 -23 -458 -66 -691 -179
-953 -60 -139 -187 -322 -322 -462 -126 -131 -144 -187 -86 -269 40 -57 32
-56 702 -56 l615 0 0 33 c0 54 29 149 60 197 l29 45 -494 3 -495 2 44 58 c143
188 267 462 325 716 46 200 58 306 81 736 11 201 25 398 31 439 64 437 393
821 817 955 693 218 1418 -226 1537 -943 8 -47 19 -176 25 -286 30 -564 41
-677 81 -865 60 -277 192 -569 351 -772 l30 -38 -459 -2 c-252 -1 -473 -1
-490 0 -18 1 -33 -1 -33 -3 0 -3 15 -33 32 -66 26 -50 34 -77 36 -136 l4 -74
632 3 631 3 32 23 c41 29 68 98 59 148 -6 27 -28 58 -95 128 -219 227 -342
433 -425 710 -59 194 -77 340 -101 816 -21 402 -36 514 -91 685 -27 81 -102
240 -150 318 -176 281 -485 518 -801 613 -90 28 -91 28 -97 63 -3 20 -6 50 -6
67 0 45 -55 147 -102 189 -86 79 -222 112 -329 82z"/>
<path d="M5045 5837 c-22 -13 -92 -60 -155 -105 -66 -47 -117 -77 -120 -71 -4
5 -8 38 -9 71 -1 34 -4 65 -7 70 -3 4 -56 8 -119 8 -135 0 -128 9 -124 -148 1
-59 1 -128 0 -154 l-1 -47 -95 -66 c-116 -81 -135 -104 -135 -162 0 -85 55
-143 137 -143 47 0 46 -1 478 303 l225 159 225 -159 c429 -302 431 -303 478
-303 87 0 143 64 134 154 -4 41 -10 55 -39 80 -38 34 -665 478 -725 513 -49
29 -98 29 -148 0z"/>
<path d="M4880 5060 l0 -100 105 0 105 0 0 100 0 100 -105 0 -105 0 0 -100z"/>
<path d="M5157 5153 c-2 -5 -2 -50 1 -100 l4 -93 99 0 99 0 0 100 0 100 -99 0
c-55 0 -102 -3 -104 -7z"/>
<path d="M4880 4780 l0 -100 100 0 100 0 0 100 0 100 -100 0 -100 0 0 -100z"/>
<path d="M5160 4780 l0 -100 100 0 100 0 0 100 0 100 -100 0 -100 0 0 -100z"/>
<path d="M5054 4144 c-16 -8 -135 -120 -263 -249 l-234 -234 5 -56 c6 -66 39
-109 100 -127 68 -20 104 -1 209 112 51 55 97 100 101 100 4 0 8 -172 8 -382
0 -421 1 -426 62 -472 35 -25 114 -26 151 -1 63 41 62 33 67 463 l5 392 106
-104 c82 -82 113 -106 141 -111 48 -9 98 8 134 46 25 27 29 38 29 90 l0 59
-230 231 c-126 126 -242 237 -257 245 -35 18 -95 18 -134 -2z"/>
</g>
</svg>
